<mxfile host="app.diagrams.net" modified="2023-05-24T22:20:53.653Z" agent="Mozilla/5.0 (Windows NT 10.0; Win64; x64) AppleWebKit/537.36 (KHTML, like Gecko) Chrome/113.0.0.0 Safari/537.36" etag="GvAbxFaUSm6uz82gZxh5" version="21.3.3" type="github">
  <diagram name="Page-1" id="YfuI3MGv20SInf6o-EmV">
    <mxGraphModel dx="880" dy="482" grid="1" gridSize="10" guides="1" tooltips="1" connect="1" arrows="1" fold="1" page="1" pageScale="1" pageWidth="850" pageHeight="1100" math="0" shadow="0">
      <root>
        <mxCell id="0" />
        <mxCell id="1" parent="0" />
        <mxCell id="pQFLcLCjgjGVwB4hHXZr-1" value="User" style="swimlane;childLayout=stackLayout;horizontal=1;startSize=50;horizontalStack=0;rounded=1;fontSize=14;fontStyle=0;strokeWidth=2;resizeParent=0;resizeLast=1;shadow=0;dashed=0;align=center;arcSize=4;whiteSpace=wrap;html=1;" parent="1" vertex="1">
          <mxGeometry x="40" y="80" width="160" height="210" as="geometry" />
        </mxCell>
        <mxCell id="pQFLcLCjgjGVwB4hHXZr-2" value="+id: String&lt;br&gt;+firstName: String&lt;br&gt;+lastName: String&lt;br&gt;+displayName: String&lt;br&gt;+email: String&lt;br&gt;+password: String&lt;br&gt;+picturePath: String Ref&lt;br&gt;+bio: String&lt;br&gt;+followers: Array&amp;lt;Friends&amp;gt;&lt;br&gt;+readingList: Array&amp;lt;Post&amp;gt;" style="align=left;strokeColor=none;fillColor=none;spacingLeft=4;fontSize=12;verticalAlign=top;resizable=0;rotatable=0;part=1;html=1;" parent="pQFLcLCjgjGVwB4hHXZr-1" vertex="1">
          <mxGeometry y="50" width="160" height="160" as="geometry" />
        </mxCell>
        <mxCell id="jJUynNdBIGQDeJG08oPH-1" value="Post" style="swimlane;childLayout=stackLayout;horizontal=1;startSize=50;horizontalStack=0;rounded=1;fontSize=14;fontStyle=0;strokeWidth=2;resizeParent=0;resizeLast=1;shadow=0;dashed=0;align=center;arcSize=4;whiteSpace=wrap;html=1;" vertex="1" parent="1">
          <mxGeometry x="260" y="150" width="180" height="200" as="geometry" />
        </mxCell>
        <mxCell id="jJUynNdBIGQDeJG08oPH-2" value="+id: String&lt;br&gt;+userId: String&lt;br&gt;+comments: Array&amp;lt;Comment&amp;gt;&lt;br&gt;+createdOn: String&lt;br&gt;+likes: int&lt;br&gt;+author: String&lt;br&gt;+title: String&lt;br&gt;+postBody: String&lt;br&gt;+categories: Array&amp;lt;String&amp;gt;" style="align=left;strokeColor=none;fillColor=none;spacingLeft=4;fontSize=12;verticalAlign=top;resizable=0;rotatable=0;part=1;html=1;" vertex="1" parent="jJUynNdBIGQDeJG08oPH-1">
          <mxGeometry y="50" width="180" height="150" as="geometry" />
        </mxCell>
        <mxCell id="jJUynNdBIGQDeJG08oPH-3" value="Comment" style="swimlane;childLayout=stackLayout;horizontal=1;startSize=50;horizontalStack=0;rounded=1;fontSize=14;fontStyle=0;strokeWidth=2;resizeParent=0;resizeLast=1;shadow=0;dashed=0;align=center;arcSize=4;whiteSpace=wrap;html=1;" vertex="1" parent="1">
          <mxGeometry x="480" y="100" width="160" height="120" as="geometry" />
        </mxCell>
        <mxCell id="jJUynNdBIGQDeJG08oPH-4" value="+postId: String&lt;br&gt;+userId: String&lt;br&gt;+content: String" style="align=left;strokeColor=none;fillColor=none;spacingLeft=4;fontSize=12;verticalAlign=top;resizable=0;rotatable=0;part=1;html=1;" vertex="1" parent="jJUynNdBIGQDeJG08oPH-3">
          <mxGeometry y="50" width="160" height="70" as="geometry" />
        </mxCell>
        <mxCell id="jJUynNdBIGQDeJG08oPH-5" value="Friend(Sub Doc)" style="swimlane;childLayout=stackLayout;horizontal=1;startSize=50;horizontalStack=0;rounded=1;fontSize=14;fontStyle=0;strokeWidth=2;resizeParent=0;resizeLast=1;shadow=0;dashed=0;align=center;arcSize=4;whiteSpace=wrap;html=1;" vertex="1" parent="1">
          <mxGeometry x="670" y="30" width="160" height="180" as="geometry" />
        </mxCell>
        <mxCell id="jJUynNdBIGQDeJG08oPH-6" value="+id: String&lt;br&gt;+firstName: String&lt;br&gt;+lastName: String&lt;br&gt;+displayName: String&lt;br&gt;+email: String&lt;br&gt;+picturePath: String Ref&lt;br&gt;+bio: String&lt;br&gt;+followers: Array&amp;lt;Users&amp;gt;" style="align=left;strokeColor=none;fillColor=none;spacingLeft=4;fontSize=12;verticalAlign=top;resizable=0;rotatable=0;part=1;html=1;" vertex="1" parent="jJUynNdBIGQDeJG08oPH-5">
          <mxGeometry y="50" width="160" height="130" as="geometry" />
        </mxCell>
        <mxCell id="jJUynNdBIGQDeJG08oPH-14" value="" style="edgeStyle=entityRelationEdgeStyle;fontSize=12;html=1;endArrow=ERoneToMany;rounded=0;entryX=0;entryY=0.75;entryDx=0;entryDy=0;" edge="1" parent="1" target="jJUynNdBIGQDeJG08oPH-1">
          <mxGeometry width="100" height="100" relative="1" as="geometry">
            <mxPoint x="200" y="170" as="sourcePoint" />
            <mxPoint x="300" y="70" as="targetPoint" />
          </mxGeometry>
        </mxCell>
        <mxCell id="jJUynNdBIGQDeJG08oPH-15" value="" style="edgeStyle=entityRelationEdgeStyle;fontSize=12;html=1;endArrow=ERoneToMany;rounded=0;entryX=0;entryY=0.25;entryDx=0;entryDy=0;" edge="1" parent="1" target="jJUynNdBIGQDeJG08oPH-3">
          <mxGeometry width="100" height="100" relative="1" as="geometry">
            <mxPoint x="440" y="290" as="sourcePoint" />
            <mxPoint x="540" y="190" as="targetPoint" />
          </mxGeometry>
        </mxCell>
        <mxCell id="jJUynNdBIGQDeJG08oPH-16" value="" style="edgeStyle=entityRelationEdgeStyle;fontSize=12;html=1;endArrow=ERoneToMany;rounded=0;entryX=-0.019;entryY=0.117;entryDx=0;entryDy=0;entryPerimeter=0;exitX=1;exitY=0;exitDx=0;exitDy=0;" edge="1" parent="1" source="pQFLcLCjgjGVwB4hHXZr-2" target="jJUynNdBIGQDeJG08oPH-3">
          <mxGeometry width="100" height="100" relative="1" as="geometry">
            <mxPoint x="200" y="150" as="sourcePoint" />
            <mxPoint x="300" y="50" as="targetPoint" />
          </mxGeometry>
        </mxCell>
        <mxCell id="jJUynNdBIGQDeJG08oPH-17" value="" style="edgeStyle=entityRelationEdgeStyle;fontSize=12;html=1;endArrow=ERoneToMany;rounded=0;entryX=-0.031;entryY=0.139;entryDx=0;entryDy=0;exitX=1;exitY=0.129;exitDx=0;exitDy=0;entryPerimeter=0;exitPerimeter=0;" edge="1" parent="1" source="pQFLcLCjgjGVwB4hHXZr-1" target="jJUynNdBIGQDeJG08oPH-5">
          <mxGeometry width="100" height="100" relative="1" as="geometry">
            <mxPoint x="200" y="110" as="sourcePoint" />
            <mxPoint x="300" y="10" as="targetPoint" />
          </mxGeometry>
        </mxCell>
      </root>
    </mxGraphModel>
  </diagram>
</mxfile>
